{"accessors":[{"bufferView":2,"componentType":5126,"count":475,"max":[0.26733601093292236,-12.947099685668945,7.853489875793457],"min":[-0.8708959817886353,-14.213800430297852,6.718989849090576],"type":"VEC3"},{"bufferView":2,"byteOffset":5700,"componentType":5126,"count":475,"max":[0.999845027923584,0.9995043277740479,1],"min":[-0.9981143474578857,-0.9995043277740479,-1],"type":"VEC3"},{"bufferView":1,"componentType":5126,"count":475,"max":[0.9901599884033203,0.9831929802894592],"min":[0.046528998762369156,0.015768000856041908],"type":"VEC2"},{"bufferView":0,"componentType":5125,"count":2436,"type":"SCALAR"}],"asset":{"extras":{"author":"Bittergiggle Playz [OFFICIAL] (https://sketchfab.com/Bittergiggle_Playz)","license":"CC-BY-4.0 (http://creativecommons.org/licenses/by/4.0/)","source":"https://sketchfab.com/3d-models/murder-drones-cricket-c4a9d8bb738440d19f4198b9a06121e4","title":"Murder Drones Cricket"},"generator":"Sketchfab-16.17.0","version":"2.0"},"bufferViews":[{"buffer":0,"byteLength":9744,"name":"floatBufferViews","target":34963},{"buffer":0,"byteLength":3800,"byteOffset":9744,"byteStride":8,"name":"floatBufferViews","target":34962},{"buffer":0,"byteLength":11400,"byteOffset":13544,"byteStride":12,"name":"floatBufferViews","target":34962}],"buffers":[{"byteLength":24944,"uri":"data:application/octet-stream;base64,"}],"images":[{"uri":"data:application/octet-stream;base64,"}],"materials":[{"doubleSided":true,"name":"Handle1Mtl","pbrMetallicRoughness":{"baseColorTexture":{"index":0},"metallicFactor":0,"roughnessFactor":0.6}}],"meshes":[{"name":"Object_0","primitives":[{"attributes":{"NORMAL":1,"POSITION":0,"TEXCOORD_0":2},"indices":3,"material":0,"mode":4}]}],"nodes":[{"children":[1],"matrix":[1,0,0,0,0,2.220446049250313e-16,-1,0,0,1,2.220446049250313e-16,0,0,0,0,1],"name":"Sketchfab_model"},{"children":[2],"name":"18acb17e2e344b44b5dc0779cf3a39ab.obj.cleaner.materialmerger.gles"},{"mesh":0,"name":"Object_2"}],"samplers":[{"magFilter":9729,"minFilter":9987,"wrapS":10497,"wrapT":10497}],"scene":0,"scenes":[{"name":"Sketchfab_Scene","nodes":[0]}],"textures":[{"sampler":0,"source":0}]}